<mxfile host="Electron" modified="2023-09-07T04:58:49.286Z" agent="Mozilla/5.0 (Windows NT 10.0; Win64; x64) AppleWebKit/537.36 (KHTML, like Gecko) draw.io/21.6.5 Chrome/114.0.5735.243 Electron/25.3.1 Safari/537.36" etag="wUxoKDSCqJser9vOPi-K" version="21.6.5" type="device">
  <diagram id="C5RBs43oDa-KdzZeNtuy" name="Page-1">
    <mxGraphModel dx="989" dy="577" grid="1" gridSize="10" guides="1" tooltips="1" connect="1" arrows="1" fold="1" page="1" pageScale="1" pageWidth="827" pageHeight="1169" math="0" shadow="0">
      <root>
        <mxCell id="WIyWlLk6GJQsqaUBKTNV-0" />
        <mxCell id="WIyWlLk6GJQsqaUBKTNV-1" parent="WIyWlLk6GJQsqaUBKTNV-0" />
        <mxCell id="7szqiaZRJZwIeRDCQAcz-5" value="" style="edgeStyle=orthogonalEdgeStyle;rounded=0;orthogonalLoop=1;jettySize=auto;html=1;startArrow=classic;startFill=1;" edge="1" parent="WIyWlLk6GJQsqaUBKTNV-1" source="7szqiaZRJZwIeRDCQAcz-0" target="7szqiaZRJZwIeRDCQAcz-4">
          <mxGeometry relative="1" as="geometry" />
        </mxCell>
        <mxCell id="7szqiaZRJZwIeRDCQAcz-8" value="" style="edgeStyle=orthogonalEdgeStyle;rounded=0;orthogonalLoop=1;jettySize=auto;html=1;" edge="1" parent="WIyWlLk6GJQsqaUBKTNV-1" source="7szqiaZRJZwIeRDCQAcz-0" target="7szqiaZRJZwIeRDCQAcz-4">
          <mxGeometry relative="1" as="geometry" />
        </mxCell>
        <mxCell id="7szqiaZRJZwIeRDCQAcz-11" style="edgeStyle=orthogonalEdgeStyle;rounded=0;orthogonalLoop=1;jettySize=auto;html=1;" edge="1" parent="WIyWlLk6GJQsqaUBKTNV-1" source="7szqiaZRJZwIeRDCQAcz-0" target="7szqiaZRJZwIeRDCQAcz-9">
          <mxGeometry relative="1" as="geometry" />
        </mxCell>
        <mxCell id="7szqiaZRJZwIeRDCQAcz-0" value="ConsultingPage" style="rounded=1;whiteSpace=wrap;html=1;" vertex="1" parent="WIyWlLk6GJQsqaUBKTNV-1">
          <mxGeometry x="340" y="160" width="120" height="60" as="geometry" />
        </mxCell>
        <mxCell id="7szqiaZRJZwIeRDCQAcz-2" style="edgeStyle=orthogonalEdgeStyle;rounded=0;orthogonalLoop=1;jettySize=auto;html=1;" edge="1" parent="WIyWlLk6GJQsqaUBKTNV-1" source="7szqiaZRJZwIeRDCQAcz-1" target="7szqiaZRJZwIeRDCQAcz-0">
          <mxGeometry relative="1" as="geometry" />
        </mxCell>
        <mxCell id="7szqiaZRJZwIeRDCQAcz-1" value="Entrada de dados" style="ellipse;whiteSpace=wrap;html=1;aspect=fixed;" vertex="1" parent="WIyWlLk6GJQsqaUBKTNV-1">
          <mxGeometry x="360" y="40" width="80" height="80" as="geometry" />
        </mxCell>
        <mxCell id="7szqiaZRJZwIeRDCQAcz-4" value="PageService" style="whiteSpace=wrap;html=1;rounded=1;" vertex="1" parent="WIyWlLk6GJQsqaUBKTNV-1">
          <mxGeometry x="520" y="160" width="120" height="60" as="geometry" />
        </mxCell>
        <mxCell id="7szqiaZRJZwIeRDCQAcz-14" style="edgeStyle=orthogonalEdgeStyle;rounded=0;orthogonalLoop=1;jettySize=auto;html=1;" edge="1" parent="WIyWlLk6GJQsqaUBKTNV-1" source="7szqiaZRJZwIeRDCQAcz-6" target="7szqiaZRJZwIeRDCQAcz-13">
          <mxGeometry relative="1" as="geometry" />
        </mxCell>
        <mxCell id="7szqiaZRJZwIeRDCQAcz-6" value="FileService" style="whiteSpace=wrap;html=1;rounded=1;" vertex="1" parent="WIyWlLk6GJQsqaUBKTNV-1">
          <mxGeometry x="340" y="400" width="120" height="60" as="geometry" />
        </mxCell>
        <mxCell id="7szqiaZRJZwIeRDCQAcz-12" style="edgeStyle=orthogonalEdgeStyle;rounded=0;orthogonalLoop=1;jettySize=auto;html=1;" edge="1" parent="WIyWlLk6GJQsqaUBKTNV-1" source="7szqiaZRJZwIeRDCQAcz-9" target="7szqiaZRJZwIeRDCQAcz-6">
          <mxGeometry relative="1" as="geometry" />
        </mxCell>
        <mxCell id="7szqiaZRJZwIeRDCQAcz-9" value="TranslateService" style="whiteSpace=wrap;html=1;rounded=1;" vertex="1" parent="WIyWlLk6GJQsqaUBKTNV-1">
          <mxGeometry x="340" y="280" width="120" height="60" as="geometry" />
        </mxCell>
        <mxCell id="7szqiaZRJZwIeRDCQAcz-13" value="&lt;span style=&quot;font-weight: 400;&quot;&gt;CheckFiles&lt;/span&gt;" style="whiteSpace=wrap;html=1;rounded=1;fontStyle=1" vertex="1" parent="WIyWlLk6GJQsqaUBKTNV-1">
          <mxGeometry x="520" y="400" width="120" height="60" as="geometry" />
        </mxCell>
      </root>
    </mxGraphModel>
  </diagram>
</mxfile>
